<mxfile modified="2023-08-15T13:39:44.324Z" host="app.diagrams.net" agent="Mozilla/5.0 (Windows NT 10.0; Win64; x64) AppleWebKit/537.36 (KHTML, like Gecko) Chrome/115.0.0.0 Safari/537.36" etag="eICzRBsoEC5cy2GS8q1l" version="21.6.8" type="device">
  <diagram id="Ht1M8jgEwFfnCIfOTk4-" name="Page-1">
    <mxGraphModel dx="1434" dy="782" grid="1" gridSize="10" guides="1" tooltips="1" connect="1" arrows="1" fold="1" page="1" pageScale="1" pageWidth="1169" pageHeight="827" math="0" shadow="0">
      <root>
        <mxCell id="0" />
        <mxCell id="1" parent="0" />
        <mxCell id="qoDXUyRk_l6neot9Q5Ap-5" value="VPC" style="points=[[0,0],[0.25,0],[0.5,0],[0.75,0],[1,0],[1,0.25],[1,0.5],[1,0.75],[1,1],[0.75,1],[0.5,1],[0.25,1],[0,1],[0,0.75],[0,0.5],[0,0.25]];outlineConnect=0;gradientColor=none;html=1;whiteSpace=wrap;fontSize=12;fontStyle=0;container=1;pointerEvents=0;collapsible=0;recursiveResize=0;shape=mxgraph.aws4.group;grIcon=mxgraph.aws4.group_vpc;strokeColor=#248814;fillColor=none;verticalAlign=top;align=left;spacingLeft=30;fontColor=#AAB7B8;dashed=0;" vertex="1" parent="1">
          <mxGeometry x="270" y="240" width="750" height="500" as="geometry" />
        </mxCell>
        <mxCell id="qoDXUyRk_l6neot9Q5Ap-47" value="EC2 instance contents" style="points=[[0,0],[0.25,0],[0.5,0],[0.75,0],[1,0],[1,0.25],[1,0.5],[1,0.75],[1,1],[0.75,1],[0.5,1],[0.25,1],[0,1],[0,0.75],[0,0.5],[0,0.25]];outlineConnect=0;gradientColor=none;html=1;whiteSpace=wrap;fontSize=12;fontStyle=0;container=1;pointerEvents=0;collapsible=0;recursiveResize=0;shape=mxgraph.aws4.group;grIcon=mxgraph.aws4.group_ec2_instance_contents;strokeColor=#D86613;fillColor=none;verticalAlign=top;align=left;spacingLeft=30;fontColor=#D86613;dashed=0;" vertex="1" parent="qoDXUyRk_l6neot9Q5Ap-5">
          <mxGeometry x="30" y="30" width="690" height="440" as="geometry" />
        </mxCell>
        <mxCell id="qoDXUyRk_l6neot9Q5Ap-49" value="Docker Compose" style="fillColor=none;strokeColor=#5A6C86;dashed=1;verticalAlign=top;fontStyle=0;fontColor=#5A6C86;whiteSpace=wrap;html=1;" vertex="1" parent="qoDXUyRk_l6neot9Q5Ap-47">
          <mxGeometry x="30" y="31" width="630" height="379" as="geometry" />
        </mxCell>
        <mxCell id="qoDXUyRk_l6neot9Q5Ap-6" value="" style="sketch=0;outlineConnect=0;fontColor=#232F3E;gradientColor=none;fillColor=#2E27AD;strokeColor=none;dashed=0;verticalLabelPosition=bottom;verticalAlign=top;align=center;html=1;fontSize=20;fontStyle=0;aspect=fixed;pointerEvents=1;shape=mxgraph.aws4.rds_postgresql_instance;" vertex="1" parent="qoDXUyRk_l6neot9Q5Ap-47">
          <mxGeometry x="525" y="81" width="88" height="88" as="geometry" />
        </mxCell>
        <mxCell id="qoDXUyRk_l6neot9Q5Ap-7" value="Ruby on Rails" style="sketch=0;outlineConnect=0;fontColor=#232F3E;gradientColor=none;fillColor=#232F3D;strokeColor=none;dashed=0;verticalLabelPosition=bottom;verticalAlign=top;align=center;html=1;fontSize=20;fontStyle=0;aspect=fixed;pointerEvents=1;shape=mxgraph.aws4.servers;" vertex="1" parent="qoDXUyRk_l6neot9Q5Ap-47">
          <mxGeometry x="405" y="191" width="78" height="78" as="geometry" />
        </mxCell>
        <mxCell id="qoDXUyRk_l6neot9Q5Ap-8" value="Next.js" style="sketch=0;outlineConnect=0;fontColor=#232F3E;gradientColor=none;fillColor=#232F3D;strokeColor=none;dashed=0;verticalLabelPosition=bottom;verticalAlign=top;align=center;html=1;fontSize=20;fontStyle=0;aspect=fixed;pointerEvents=1;shape=mxgraph.aws4.servers;" vertex="1" parent="qoDXUyRk_l6neot9Q5Ap-47">
          <mxGeometry x="230" y="136" width="78" height="78" as="geometry" />
        </mxCell>
        <mxCell id="qoDXUyRk_l6neot9Q5Ap-18" value="" style="edgeStyle=orthogonalEdgeStyle;html=1;endArrow=block;elbow=vertical;startArrow=block;startFill=1;endFill=1;strokeColor=#545B64;rounded=0;" edge="1" parent="qoDXUyRk_l6neot9Q5Ap-47" source="qoDXUyRk_l6neot9Q5Ap-8" target="qoDXUyRk_l6neot9Q5Ap-7">
          <mxGeometry width="100" relative="1" as="geometry">
            <mxPoint x="380" y="31" as="sourcePoint" />
            <mxPoint x="480" y="31" as="targetPoint" />
            <Array as="points" />
          </mxGeometry>
        </mxCell>
        <mxCell id="qoDXUyRk_l6neot9Q5Ap-10" value="Redis" style="sketch=0;outlineConnect=0;fontColor=#232F3E;gradientColor=none;fillColor=#232F3D;strokeColor=none;dashed=0;verticalLabelPosition=bottom;verticalAlign=top;align=center;html=1;fontSize=20;fontStyle=0;aspect=fixed;pointerEvents=1;shape=mxgraph.aws4.generic_database;" vertex="1" parent="qoDXUyRk_l6neot9Q5Ap-47">
          <mxGeometry x="539.5" y="291" width="59" height="78" as="geometry" />
        </mxCell>
        <mxCell id="qoDXUyRk_l6neot9Q5Ap-50" value="" style="edgeStyle=orthogonalEdgeStyle;html=1;endArrow=block;elbow=vertical;startArrow=block;startFill=1;endFill=1;strokeColor=#545B64;rounded=0;" edge="1" parent="qoDXUyRk_l6neot9Q5Ap-47" source="qoDXUyRk_l6neot9Q5Ap-7" target="qoDXUyRk_l6neot9Q5Ap-6">
          <mxGeometry width="100" relative="1" as="geometry">
            <mxPoint x="230" y="141" as="sourcePoint" />
            <mxPoint x="330" y="141" as="targetPoint" />
            <Array as="points">
              <mxPoint x="569" y="221" />
            </Array>
          </mxGeometry>
        </mxCell>
        <mxCell id="qoDXUyRk_l6neot9Q5Ap-51" value="" style="edgeStyle=orthogonalEdgeStyle;html=1;endArrow=block;elbow=vertical;startArrow=block;startFill=1;endFill=1;strokeColor=#545B64;rounded=0;" edge="1" parent="qoDXUyRk_l6neot9Q5Ap-47" source="qoDXUyRk_l6neot9Q5Ap-7" target="qoDXUyRk_l6neot9Q5Ap-10">
          <mxGeometry width="100" relative="1" as="geometry">
            <mxPoint x="230" y="141" as="sourcePoint" />
            <mxPoint x="330" y="141" as="targetPoint" />
            <Array as="points">
              <mxPoint x="569" y="241" />
            </Array>
          </mxGeometry>
        </mxCell>
        <mxCell id="qoDXUyRk_l6neot9Q5Ap-11" value="Nginx&lt;br style=&quot;font-size: 20px;&quot;&gt;" style="sketch=0;outlineConnect=0;fontColor=#232F3E;gradientColor=none;fillColor=#232F3D;strokeColor=none;dashed=0;verticalLabelPosition=bottom;verticalAlign=top;align=center;html=1;fontSize=20;fontStyle=0;aspect=fixed;pointerEvents=1;shape=mxgraph.aws4.internet;" vertex="1" parent="qoDXUyRk_l6neot9Q5Ap-47">
          <mxGeometry x="70" y="151" width="78" height="48" as="geometry" />
        </mxCell>
        <mxCell id="qoDXUyRk_l6neot9Q5Ap-17" value="" style="edgeStyle=orthogonalEdgeStyle;html=1;endArrow=block;elbow=vertical;startArrow=block;startFill=1;endFill=1;strokeColor=#545B64;rounded=0;" edge="1" parent="qoDXUyRk_l6neot9Q5Ap-47" source="qoDXUyRk_l6neot9Q5Ap-11" target="qoDXUyRk_l6neot9Q5Ap-8">
          <mxGeometry width="100" relative="1" as="geometry">
            <mxPoint x="48" y="249" as="sourcePoint" />
            <mxPoint x="148" y="249" as="targetPoint" />
          </mxGeometry>
        </mxCell>
        <mxCell id="qoDXUyRk_l6neot9Q5Ap-53" style="edgeStyle=orthogonalEdgeStyle;rounded=0;orthogonalLoop=1;jettySize=auto;html=1;exitX=0.5;exitY=1;exitDx=0;exitDy=0;" edge="1" parent="qoDXUyRk_l6neot9Q5Ap-47" source="qoDXUyRk_l6neot9Q5Ap-49" target="qoDXUyRk_l6neot9Q5Ap-49">
          <mxGeometry relative="1" as="geometry" />
        </mxCell>
        <mxCell id="qoDXUyRk_l6neot9Q5Ap-37" value="&lt;font style=&quot;font-size: 20px;&quot;&gt;Cliant&lt;/font&gt;" style="sketch=0;outlineConnect=0;fontColor=#232F3E;gradientColor=none;fillColor=#232F3D;strokeColor=none;dashed=0;verticalLabelPosition=bottom;verticalAlign=top;align=center;html=1;fontSize=20;fontStyle=0;aspect=fixed;pointerEvents=1;shape=mxgraph.aws4.client;" vertex="1" parent="1">
          <mxGeometry x="140" y="407" width="78" height="76" as="geometry" />
        </mxCell>
        <mxCell id="qoDXUyRk_l6neot9Q5Ap-38" value="" style="edgeStyle=orthogonalEdgeStyle;html=1;endArrow=block;elbow=vertical;startArrow=block;startFill=1;endFill=1;strokeColor=#545B64;rounded=0;" edge="1" parent="1" source="qoDXUyRk_l6neot9Q5Ap-37" target="qoDXUyRk_l6neot9Q5Ap-11">
          <mxGeometry width="100" relative="1" as="geometry">
            <mxPoint x="530" y="420" as="sourcePoint" />
            <mxPoint x="630" y="420" as="targetPoint" />
          </mxGeometry>
        </mxCell>
        <mxCell id="qoDXUyRk_l6neot9Q5Ap-41" value="External API" style="sketch=0;outlineConnect=0;fontColor=#232F3E;gradientColor=none;fillColor=#232F3D;strokeColor=none;dashed=0;verticalLabelPosition=bottom;verticalAlign=top;align=center;html=1;fontSize=20;fontStyle=0;aspect=fixed;pointerEvents=1;shape=mxgraph.aws4.traditional_server;" vertex="1" parent="1">
          <mxGeometry x="790" y="120" width="45" height="78" as="geometry" />
        </mxCell>
        <mxCell id="qoDXUyRk_l6neot9Q5Ap-43" value="" style="edgeStyle=orthogonalEdgeStyle;html=1;endArrow=block;elbow=vertical;startArrow=block;startFill=1;endFill=1;strokeColor=#545B64;rounded=0;" edge="1" parent="1" source="qoDXUyRk_l6neot9Q5Ap-7" target="qoDXUyRk_l6neot9Q5Ap-41">
          <mxGeometry width="100" relative="1" as="geometry">
            <mxPoint x="750" y="260" as="sourcePoint" />
            <mxPoint x="640" y="110" as="targetPoint" />
            <Array as="points">
              <mxPoint x="744" y="170" />
            </Array>
          </mxGeometry>
        </mxCell>
      </root>
    </mxGraphModel>
  </diagram>
</mxfile>
